<mxfile host="app.diagrams.net" agent="Mozilla/5.0 (Windows NT 10.0; Win64; x64) AppleWebKit/537.36 (KHTML, like Gecko) Chrome/135.0.0.0 Safari/537.36" version="26.2.12">
  <diagram name="Sayfa -1" id="zsY3T_N-TOc5dI9Dd3E0">
    <mxGraphModel dx="1058" dy="550" grid="1" gridSize="10" guides="1" tooltips="1" connect="1" arrows="1" fold="1" page="1" pageScale="1" pageWidth="827" pageHeight="1169" math="0" shadow="0">
      <root>
        <mxCell id="0" />
        <mxCell id="1" parent="0" />
        <mxCell id="ahIOpdcKi9NpB5ZGy0dC-43" value="" style="edgeStyle=orthogonalEdgeStyle;rounded=0;orthogonalLoop=1;jettySize=auto;html=1;" edge="1" parent="1" source="ahIOpdcKi9NpB5ZGy0dC-1" target="ahIOpdcKi9NpB5ZGy0dC-2">
          <mxGeometry relative="1" as="geometry" />
        </mxCell>
        <mxCell id="ahIOpdcKi9NpB5ZGy0dC-1" value="BAŞLA" style="ellipse;whiteSpace=wrap;html=1;" vertex="1" parent="1">
          <mxGeometry x="30" y="20" width="120" height="80" as="geometry" />
        </mxCell>
        <mxCell id="ahIOpdcKi9NpB5ZGy0dC-31" value="" style="edgeStyle=orthogonalEdgeStyle;rounded=0;orthogonalLoop=1;jettySize=auto;html=1;" edge="1" parent="1" source="ahIOpdcKi9NpB5ZGy0dC-2" target="ahIOpdcKi9NpB5ZGy0dC-3">
          <mxGeometry relative="1" as="geometry" />
        </mxCell>
        <mxCell id="ahIOpdcKi9NpB5ZGy0dC-2" value="UÇAK DALIŞA BAŞLIYOR" style="rounded=0;whiteSpace=wrap;html=1;" vertex="1" parent="1">
          <mxGeometry x="30" y="130" width="120" height="60" as="geometry" />
        </mxCell>
        <mxCell id="ahIOpdcKi9NpB5ZGy0dC-32" value="" style="edgeStyle=orthogonalEdgeStyle;rounded=0;orthogonalLoop=1;jettySize=auto;html=1;" edge="1" parent="1" source="ahIOpdcKi9NpB5ZGy0dC-3" target="ahIOpdcKi9NpB5ZGy0dC-5">
          <mxGeometry relative="1" as="geometry" />
        </mxCell>
        <mxCell id="ahIOpdcKi9NpB5ZGy0dC-3" value="KAMERAYI AKTİF HALE GETİR" style="rounded=0;whiteSpace=wrap;html=1;" vertex="1" parent="1">
          <mxGeometry x="190" y="130" width="120" height="60" as="geometry" />
        </mxCell>
        <mxCell id="ahIOpdcKi9NpB5ZGy0dC-33" value="" style="edgeStyle=orthogonalEdgeStyle;rounded=0;orthogonalLoop=1;jettySize=auto;html=1;" edge="1" parent="1" source="ahIOpdcKi9NpB5ZGy0dC-5" target="ahIOpdcKi9NpB5ZGy0dC-6">
          <mxGeometry relative="1" as="geometry" />
        </mxCell>
        <mxCell id="ahIOpdcKi9NpB5ZGy0dC-5" value="GÖRÜNTÜ AL" style="rounded=0;whiteSpace=wrap;html=1;" vertex="1" parent="1">
          <mxGeometry x="340" y="130" width="120" height="60" as="geometry" />
        </mxCell>
        <mxCell id="ahIOpdcKi9NpB5ZGy0dC-34" value="" style="edgeStyle=orthogonalEdgeStyle;rounded=0;orthogonalLoop=1;jettySize=auto;html=1;" edge="1" parent="1" source="ahIOpdcKi9NpB5ZGy0dC-6" target="ahIOpdcKi9NpB5ZGy0dC-7">
          <mxGeometry relative="1" as="geometry" />
        </mxCell>
        <mxCell id="ahIOpdcKi9NpB5ZGy0dC-6" value="GÖRÜNTÜDEN QR KODUNU TESPİT ET" style="rounded=0;whiteSpace=wrap;html=1;" vertex="1" parent="1">
          <mxGeometry x="510" y="130" width="120" height="60" as="geometry" />
        </mxCell>
        <mxCell id="ahIOpdcKi9NpB5ZGy0dC-7" value="&lt;font style=&quot;font-size: 10px;&quot;&gt;QR TESPİT EDİLDİ Mİ&lt;/font&gt;" style="rhombus;whiteSpace=wrap;html=1;" vertex="1" parent="1">
          <mxGeometry x="505" y="220" width="130" height="80" as="geometry" />
        </mxCell>
        <mxCell id="ahIOpdcKi9NpB5ZGy0dC-8" value="QR KODU BİLGİSİNİ OKU" style="rounded=0;whiteSpace=wrap;html=1;" vertex="1" parent="1">
          <mxGeometry x="340" y="230" width="120" height="60" as="geometry" />
        </mxCell>
        <mxCell id="ahIOpdcKi9NpB5ZGy0dC-9" value="" style="endArrow=none;html=1;rounded=0;exitX=0;exitY=1;exitDx=0;exitDy=0;exitPerimeter=0;" edge="1" parent="1">
          <mxGeometry width="50" height="50" relative="1" as="geometry">
            <mxPoint x="630" y="260" as="sourcePoint" />
            <mxPoint x="690" y="260" as="targetPoint" />
          </mxGeometry>
        </mxCell>
        <mxCell id="ahIOpdcKi9NpB5ZGy0dC-10" value="" style="endArrow=none;html=1;rounded=0;" edge="1" parent="1">
          <mxGeometry width="50" height="50" relative="1" as="geometry">
            <mxPoint x="690" y="259.5" as="sourcePoint" />
            <mxPoint x="690" y="80" as="targetPoint" />
          </mxGeometry>
        </mxCell>
        <mxCell id="ahIOpdcKi9NpB5ZGy0dC-11" value="" style="endArrow=none;html=1;rounded=0;" edge="1" parent="1">
          <mxGeometry width="50" height="50" relative="1" as="geometry">
            <mxPoint x="690" y="79.5" as="sourcePoint" />
            <mxPoint x="250" y="80" as="targetPoint" />
          </mxGeometry>
        </mxCell>
        <mxCell id="ahIOpdcKi9NpB5ZGy0dC-13" value="" style="endArrow=classic;html=1;rounded=0;entryX=0.5;entryY=0;entryDx=0;entryDy=0;" edge="1" parent="1" target="ahIOpdcKi9NpB5ZGy0dC-3">
          <mxGeometry width="50" height="50" relative="1" as="geometry">
            <mxPoint x="250" y="80" as="sourcePoint" />
            <mxPoint x="300" y="30" as="targetPoint" />
          </mxGeometry>
        </mxCell>
        <mxCell id="ahIOpdcKi9NpB5ZGy0dC-14" value="" style="endArrow=classic;html=1;rounded=0;entryX=1;entryY=0.5;entryDx=0;entryDy=0;exitX=0;exitY=0.5;exitDx=0;exitDy=0;" edge="1" parent="1" source="ahIOpdcKi9NpB5ZGy0dC-7" target="ahIOpdcKi9NpB5ZGy0dC-8">
          <mxGeometry width="50" height="50" relative="1" as="geometry">
            <mxPoint x="470" y="260" as="sourcePoint" />
            <mxPoint x="520" y="210" as="targetPoint" />
          </mxGeometry>
        </mxCell>
        <mxCell id="ahIOpdcKi9NpB5ZGy0dC-16" value="EVET" style="text;html=1;align=center;verticalAlign=middle;resizable=0;points=[];autosize=1;strokeColor=none;fillColor=none;" vertex="1" parent="1">
          <mxGeometry x="460" y="230" width="50" height="30" as="geometry" />
        </mxCell>
        <mxCell id="ahIOpdcKi9NpB5ZGy0dC-38" value="" style="edgeStyle=orthogonalEdgeStyle;rounded=0;orthogonalLoop=1;jettySize=auto;html=1;" edge="1" parent="1" source="ahIOpdcKi9NpB5ZGy0dC-17" target="ahIOpdcKi9NpB5ZGy0dC-18">
          <mxGeometry relative="1" as="geometry" />
        </mxCell>
        <mxCell id="ahIOpdcKi9NpB5ZGy0dC-17" value="OKUNAN BİLGİYİ YER KONTROL İSTASYONUNA GÖNDER" style="rounded=0;whiteSpace=wrap;html=1;" vertex="1" parent="1">
          <mxGeometry x="190" y="230" width="120" height="60" as="geometry" />
        </mxCell>
        <mxCell id="ahIOpdcKi9NpB5ZGy0dC-39" value="" style="edgeStyle=orthogonalEdgeStyle;rounded=0;orthogonalLoop=1;jettySize=auto;html=1;" edge="1" parent="1" source="ahIOpdcKi9NpB5ZGy0dC-18" target="ahIOpdcKi9NpB5ZGy0dC-19">
          <mxGeometry relative="1" as="geometry" />
        </mxCell>
        <mxCell id="ahIOpdcKi9NpB5ZGy0dC-18" value="YER KONTROL İSTASYANUNDAN VERİYİ AL&amp;nbsp;" style="rounded=0;whiteSpace=wrap;html=1;" vertex="1" parent="1">
          <mxGeometry x="30" y="230" width="120" height="60" as="geometry" />
        </mxCell>
        <mxCell id="ahIOpdcKi9NpB5ZGy0dC-19" value="VERİ ARAYÜZÜNE AKTAR" style="rounded=0;whiteSpace=wrap;html=1;" vertex="1" parent="1">
          <mxGeometry x="30" y="320" width="120" height="60" as="geometry" />
        </mxCell>
        <mxCell id="ahIOpdcKi9NpB5ZGy0dC-42" value="" style="edgeStyle=orthogonalEdgeStyle;rounded=0;orthogonalLoop=1;jettySize=auto;html=1;" edge="1" parent="1" source="ahIOpdcKi9NpB5ZGy0dC-20" target="ahIOpdcKi9NpB5ZGy0dC-21">
          <mxGeometry relative="1" as="geometry" />
        </mxCell>
        <mxCell id="ahIOpdcKi9NpB5ZGy0dC-20" value="VERİYİ UDP İLE SUNUCUYA GÖNDER" style="rounded=0;whiteSpace=wrap;html=1;" vertex="1" parent="1">
          <mxGeometry x="190" y="320" width="120" height="60" as="geometry" />
        </mxCell>
        <mxCell id="ahIOpdcKi9NpB5ZGy0dC-21" value="&lt;font style=&quot;font-size: 10px;&quot;&gt;VERİ BAŞARIYLA AKTARILDI MI&lt;/font&gt;" style="rhombus;whiteSpace=wrap;html=1;" vertex="1" parent="1">
          <mxGeometry x="340" y="310" width="120" height="80" as="geometry" />
        </mxCell>
        <mxCell id="ahIOpdcKi9NpB5ZGy0dC-22" value="BİTİR" style="ellipse;whiteSpace=wrap;html=1;" vertex="1" parent="1">
          <mxGeometry x="340" y="440" width="120" height="80" as="geometry" />
        </mxCell>
        <mxCell id="ahIOpdcKi9NpB5ZGy0dC-23" value="" style="endArrow=classic;html=1;rounded=0;" edge="1" parent="1" target="ahIOpdcKi9NpB5ZGy0dC-22">
          <mxGeometry width="50" height="50" relative="1" as="geometry">
            <mxPoint x="400" y="390" as="sourcePoint" />
            <mxPoint x="450" y="340" as="targetPoint" />
          </mxGeometry>
        </mxCell>
        <mxCell id="ahIOpdcKi9NpB5ZGy0dC-24" value="EVET" style="text;html=1;align=center;verticalAlign=middle;resizable=0;points=[];autosize=1;strokeColor=none;fillColor=none;flipV=1;rotation=90;" vertex="1" parent="1">
          <mxGeometry x="389" y="400" width="50" height="30" as="geometry" />
        </mxCell>
        <mxCell id="ahIOpdcKi9NpB5ZGy0dC-25" value="" style="endArrow=none;html=1;rounded=0;" edge="1" parent="1">
          <mxGeometry width="50" height="50" relative="1" as="geometry">
            <mxPoint x="400" y="310" as="sourcePoint" />
            <mxPoint x="170" y="310" as="targetPoint" />
          </mxGeometry>
        </mxCell>
        <mxCell id="ahIOpdcKi9NpB5ZGy0dC-26" value="" style="endArrow=none;html=1;rounded=0;" edge="1" parent="1">
          <mxGeometry width="50" height="50" relative="1" as="geometry">
            <mxPoint x="170" y="310" as="sourcePoint" />
            <mxPoint x="170" y="290" as="targetPoint" />
          </mxGeometry>
        </mxCell>
        <mxCell id="ahIOpdcKi9NpB5ZGy0dC-28" value="HAYIR" style="text;html=1;align=center;verticalAlign=middle;resizable=0;points=[];autosize=1;strokeColor=none;fillColor=none;" vertex="1" parent="1">
          <mxGeometry x="230" y="290" width="60" height="30" as="geometry" />
        </mxCell>
        <mxCell id="ahIOpdcKi9NpB5ZGy0dC-30" value="HAYIR" style="text;html=1;align=center;verticalAlign=middle;resizable=0;points=[];autosize=1;strokeColor=none;fillColor=none;rotation=90;" vertex="1" parent="1">
          <mxGeometry x="670" y="145" width="60" height="30" as="geometry" />
        </mxCell>
        <mxCell id="ahIOpdcKi9NpB5ZGy0dC-36" value="" style="endArrow=classic;html=1;rounded=0;" edge="1" parent="1" target="ahIOpdcKi9NpB5ZGy0dC-17">
          <mxGeometry width="50" height="50" relative="1" as="geometry">
            <mxPoint x="340" y="260" as="sourcePoint" />
            <mxPoint x="390" y="210" as="targetPoint" />
          </mxGeometry>
        </mxCell>
        <mxCell id="ahIOpdcKi9NpB5ZGy0dC-37" value="" style="endArrow=classic;html=1;rounded=0;entryX=1;entryY=1;entryDx=0;entryDy=0;" edge="1" parent="1" target="ahIOpdcKi9NpB5ZGy0dC-18">
          <mxGeometry width="50" height="50" relative="1" as="geometry">
            <mxPoint x="170" y="290" as="sourcePoint" />
            <mxPoint x="220" y="240" as="targetPoint" />
          </mxGeometry>
        </mxCell>
        <mxCell id="ahIOpdcKi9NpB5ZGy0dC-41" value="" style="endArrow=classic;html=1;rounded=0;entryX=0;entryY=0.5;entryDx=0;entryDy=0;" edge="1" parent="1" target="ahIOpdcKi9NpB5ZGy0dC-20">
          <mxGeometry width="50" height="50" relative="1" as="geometry">
            <mxPoint x="150" y="350" as="sourcePoint" />
            <mxPoint x="200" y="300" as="targetPoint" />
          </mxGeometry>
        </mxCell>
      </root>
    </mxGraphModel>
  </diagram>
</mxfile>
